<svg width="1728" height="1117" viewBox="0 0 1728 1117" fill="none" xmlns="http://www.w3.org/2000/svg">
<g clip-path="url(#clip0_7_203)">
<rect width="1728" height="1117" fill="white"/>
<rect y="1" width="1728" height="604" fill="#D9D9D9"/>
<line x1="55" y1="671.5" x2="617" y2="671.5" stroke="#7E7E7E" stroke-width="11"/>
<line x1="52" y1="893.5" x2="614" y2="893.5" stroke="#7E7E7E" stroke-width="11"/>
<line x1="54" y1="708.5" x2="616" y2="708.5" stroke="#7E7E7E" stroke-width="11"/>
<line x1="51" y1="930.5" x2="613" y2="930.5" stroke="#7E7E7E" stroke-width="11"/>
<line x1="53" y1="745.5" x2="615" y2="745.5" stroke="#7E7E7E" stroke-width="11"/>
<line x1="50" y1="967.5" x2="612" y2="967.5" stroke="#7E7E7E" stroke-width="11"/>
<line x1="52" y1="782.5" x2="614" y2="782.5" stroke="#7E7E7E" stroke-width="11"/>
<line x1="49" y1="1004.5" x2="611" y2="1004.5" stroke="#7E7E7E" stroke-width="11"/>
<rect x="1385.5" y="136.5" width="164" height="178" stroke="black"/>
<path d="M1431.75 293.44V157.56L1539.07 225.5L1431.75 293.44Z" fill="#7E7E7E" stroke="black"/>
<line y1="604.5" x2="1728.13" y2="604.5" stroke="black"/>
<rect x="278" y="59" width="1034" height="143" fill="#7E7E7E"/>
<rect x="278" y="276" width="502" height="74" fill="#7E7E7E"/>
<rect x="282" y="422" width="502" height="74" fill="#7E7E7E"/>
<rect x="1259" y="942" width="419" height="127" fill="#7E7E7E"/>
<rect x="1259.5" y="461.5" width="418" height="462" fill="#D9D9D9" stroke="black"/>
<rect x="1312" y="608" width="311" height="78" fill="#7E7E7E"/>
<rect x="1312" y="713" width="311" height="78" fill="#7E7E7E"/>
<rect x="1312" y="818" width="311" height="78" fill="#7E7E7E"/>
<rect x="1312" y="488" width="311" height="78" fill="#7E7E7E"/>
<rect x="49" y="50" width="188" height="192" fill="#7E7E7E"/>
<path d="M393.875 175.875V191H356.062V175.875H393.875ZM361.688 100V191H343.375V100H361.688ZM423.32 192.25C418.695 192.25 414.591 191.542 411.007 190.125C407.466 188.708 404.466 186.667 402.007 184C399.549 181.292 397.674 178.021 396.382 174.188C395.091 170.354 394.445 165.979 394.445 161.062V155.5C394.445 150 395.07 145.188 396.32 141.062C397.57 136.896 399.341 133.396 401.632 130.562C403.924 127.729 406.737 125.625 410.07 124.25C413.445 122.833 417.257 122.125 421.507 122.125C425.757 122.125 429.487 122.833 432.695 124.25C435.945 125.625 438.632 127.708 440.757 130.5C442.882 133.25 444.487 136.667 445.57 140.75C446.653 144.833 447.195 149.583 447.195 155V163H401.882V150.688H430.007V149.125C430.007 146.375 429.716 144.083 429.132 142.25C428.549 140.375 427.632 138.979 426.382 138.062C425.132 137.146 423.466 136.688 421.382 136.688C419.632 136.688 418.153 137.042 416.945 137.75C415.737 138.458 414.778 139.562 414.07 141.062C413.362 142.562 412.841 144.521 412.507 146.938C412.174 149.312 412.007 152.167 412.007 155.5V161.062C412.007 164.188 412.278 166.812 412.82 168.938C413.362 171.021 414.153 172.729 415.195 174.062C416.278 175.354 417.591 176.292 419.132 176.875C420.674 177.417 422.466 177.688 424.507 177.688C427.591 177.688 430.362 177.146 432.82 176.062C435.32 174.938 437.445 173.417 439.195 171.5L446.195 182.125C444.987 183.708 443.32 185.292 441.195 186.875C439.07 188.458 436.528 189.75 433.57 190.75C430.612 191.75 427.195 192.25 423.32 192.25ZM479.452 175.438V144.188C479.452 142.146 479.202 140.521 478.702 139.312C478.244 138.104 477.536 137.229 476.577 136.688C475.661 136.104 474.536 135.812 473.202 135.812C471.702 135.812 470.452 136.125 469.452 136.75C468.452 137.375 467.702 138.271 467.202 139.438C466.744 140.604 466.515 142 466.515 143.625H448.952C448.952 140.708 449.515 137.958 450.64 135.375C451.765 132.75 453.411 130.458 455.577 128.5C457.786 126.5 460.411 124.938 463.452 123.812C466.494 122.688 469.911 122.125 473.702 122.125C478.202 122.125 482.202 122.896 485.702 124.438C489.202 125.938 491.973 128.333 494.015 131.625C496.057 134.917 497.077 139.188 497.077 144.438V174.562C497.077 178.354 497.265 181.438 497.64 183.812C498.057 186.188 498.661 188.229 499.452 189.938V191H481.827C481.036 189.125 480.432 186.792 480.015 184C479.64 181.167 479.452 178.312 479.452 175.438ZM481.577 149.688L481.64 160.188H475.202C473.536 160.188 472.077 160.458 470.827 161C469.619 161.542 468.598 162.312 467.765 163.312C466.932 164.271 466.307 165.396 465.89 166.688C465.515 167.979 465.327 169.354 465.327 170.812C465.327 172.438 465.557 173.812 466.015 174.938C466.473 176.062 467.161 176.917 468.077 177.5C468.994 178.083 470.077 178.375 471.327 178.375C473.244 178.375 474.911 177.979 476.327 177.188C477.744 176.396 478.786 175.438 479.452 174.312C480.161 173.188 480.39 172.146 480.14 171.188L484.14 178C483.64 179.542 482.952 181.146 482.077 182.812C481.244 184.479 480.182 186.021 478.89 187.438C477.598 188.854 475.994 190.021 474.077 190.938C472.202 191.812 469.973 192.25 467.39 192.25C463.765 192.25 460.452 191.417 457.452 189.75C454.452 188.083 452.077 185.75 450.327 182.75C448.619 179.75 447.765 176.188 447.765 172.062C447.765 168.646 448.307 165.562 449.39 162.812C450.515 160.021 452.182 157.667 454.39 155.75C456.598 153.792 459.39 152.292 462.765 151.25C466.14 150.208 470.098 149.688 474.64 149.688H481.577ZM535.085 176.062V95H552.648V191L536.773 191.062L535.085 176.062ZM500.023 159.562V155.062C500.023 149.562 500.481 144.75 501.398 140.625C502.356 136.5 503.773 133.062 505.648 130.312C507.523 127.562 509.814 125.521 512.523 124.188C515.273 122.812 518.418 122.125 521.96 122.125C525.168 122.125 527.981 122.938 530.398 124.562C532.856 126.146 534.939 128.375 536.648 131.25C538.356 134.125 539.731 137.521 540.773 141.438C541.814 145.354 542.543 149.646 542.96 154.312V160.812C542.46 165.229 541.689 169.354 540.648 173.188C539.648 177.021 538.273 180.354 536.523 183.188C534.814 186.021 532.752 188.25 530.335 189.875C527.918 191.458 525.106 192.25 521.898 192.25C518.356 192.25 515.21 191.542 512.46 190.125C509.752 188.708 507.46 186.625 505.585 183.875C503.752 181.083 502.356 177.667 501.398 173.625C500.481 169.542 500.023 164.854 500.023 159.562ZM517.523 155.062V159.562C517.523 162.729 517.668 165.458 517.96 167.75C518.293 170 518.814 171.854 519.523 173.312C520.273 174.729 521.252 175.792 522.46 176.5C523.668 177.167 525.168 177.5 526.96 177.5C529.293 177.5 531.189 176.917 532.648 175.75C534.106 174.542 535.189 172.896 535.898 170.812C536.648 168.688 537.064 166.25 537.148 163.5V151.688C537.064 149.396 536.793 147.333 536.335 145.5C535.877 143.667 535.231 142.104 534.398 140.812C533.564 139.521 532.523 138.521 531.273 137.812C530.064 137.104 528.648 136.75 527.023 136.75C525.273 136.75 523.773 137.104 522.523 137.812C521.314 138.521 520.356 139.625 519.648 141.125C518.939 142.583 518.398 144.479 518.023 146.812C517.689 149.104 517.523 151.854 517.523 155.062ZM642.663 143.188V180.688C641.371 182.062 639.475 183.667 636.975 185.5C634.517 187.292 631.288 188.875 627.288 190.25C623.329 191.583 618.496 192.25 612.788 192.25C607.746 192.25 603.163 191.458 599.038 189.875C594.954 188.292 591.433 185.896 588.475 182.688C585.558 179.438 583.329 175.396 581.788 170.562C580.246 165.688 579.475 159.917 579.475 153.25V137.75C579.475 131.167 580.204 125.438 581.663 120.562C583.163 115.646 585.329 111.562 588.163 108.312C590.996 105.062 594.371 102.646 598.288 101.062C602.246 99.4792 606.704 98.6875 611.663 98.6875C618.496 98.6875 624.1 99.8333 628.475 102.125C632.892 104.417 636.225 107.812 638.475 112.312C640.767 116.812 642.142 122.333 642.6 128.875H624.913C624.621 125.042 623.975 122.042 622.975 119.875C622.017 117.708 620.663 116.167 618.913 115.25C617.163 114.292 614.892 113.812 612.1 113.812C609.683 113.812 607.579 114.25 605.788 115.125C603.996 115.958 602.496 117.333 601.288 119.25C600.079 121.167 599.183 123.625 598.6 126.625C598.017 129.625 597.725 133.292 597.725 137.625V153.25C597.725 157.542 598.058 161.208 598.725 164.25C599.392 167.292 600.371 169.771 601.663 171.688C602.996 173.604 604.663 175 606.663 175.875C608.704 176.708 611.1 177.125 613.85 177.125C616.058 177.125 617.829 176.896 619.163 176.438C620.496 175.979 621.558 175.5 622.35 175C623.183 174.458 623.871 174.042 624.413 173.75V157H611.35V143.188H642.663ZM674.545 192.25C669.92 192.25 665.816 191.542 662.233 190.125C658.691 188.708 655.691 186.667 653.233 184C650.774 181.292 648.899 178.021 647.608 174.188C646.316 170.354 645.67 165.979 645.67 161.062V155.5C645.67 150 646.295 145.188 647.545 141.062C648.795 136.896 650.566 133.396 652.858 130.562C655.149 127.729 657.962 125.625 661.295 124.25C664.67 122.833 668.483 122.125 672.733 122.125C676.983 122.125 680.712 122.833 683.92 124.25C687.17 125.625 689.858 127.708 691.983 130.5C694.108 133.25 695.712 136.667 696.795 140.75C697.878 144.833 698.42 149.583 698.42 155V163H653.108V150.688H681.233V149.125C681.233 146.375 680.941 144.083 680.358 142.25C679.774 140.375 678.858 138.979 677.608 138.062C676.358 137.146 674.691 136.688 672.608 136.688C670.858 136.688 669.378 137.042 668.17 137.75C666.962 138.458 666.003 139.562 665.295 141.062C664.587 142.562 664.066 144.521 663.733 146.938C663.399 149.312 663.233 152.167 663.233 155.5V161.062C663.233 164.188 663.503 166.812 664.045 168.938C664.587 171.021 665.378 172.729 666.42 174.062C667.503 175.354 668.816 176.292 670.358 176.875C671.899 177.417 673.691 177.688 675.733 177.688C678.816 177.688 681.587 177.146 684.045 176.062C686.545 174.938 688.67 173.417 690.42 171.5L697.42 182.125C696.212 183.708 694.545 185.292 692.42 186.875C690.295 188.458 687.753 189.75 684.795 190.75C681.837 191.75 678.42 192.25 674.545 192.25ZM718.052 137.812V191H700.49V123.375H716.927L718.052 137.812ZM715.427 154.875L710.74 155C710.657 149.917 711.136 145.354 712.177 141.312C713.261 137.271 714.782 133.833 716.74 131C718.74 128.125 721.115 125.938 723.865 124.438C726.657 122.896 729.761 122.125 733.177 122.125C735.802 122.125 738.198 122.583 740.365 123.5C742.573 124.417 744.469 125.875 746.052 127.875C747.636 129.875 748.865 132.542 749.74 135.875C750.615 139.167 751.052 143.208 751.052 148V191H733.49V147.875C733.49 144.958 733.198 142.708 732.615 141.125C732.032 139.5 731.157 138.375 729.99 137.75C728.823 137.083 727.365 136.75 725.615 136.75C723.948 136.75 722.469 137.229 721.177 138.188C719.886 139.104 718.802 140.375 717.927 142C717.094 143.625 716.448 145.542 715.99 147.75C715.573 149.958 715.386 152.333 715.427 154.875ZM783.435 192.25C778.81 192.25 774.706 191.542 771.122 190.125C767.581 188.708 764.581 186.667 762.122 184C759.664 181.292 757.789 178.021 756.497 174.188C755.206 170.354 754.56 165.979 754.56 161.062V155.5C754.56 150 755.185 145.188 756.435 141.062C757.685 136.896 759.456 133.396 761.747 130.562C764.039 127.729 766.852 125.625 770.185 124.25C773.56 122.833 777.372 122.125 781.622 122.125C785.872 122.125 789.602 122.833 792.81 124.25C796.06 125.625 798.747 127.708 800.872 130.5C802.997 133.25 804.602 136.667 805.685 140.75C806.768 144.833 807.31 149.583 807.31 155V163H761.997V150.688H790.122V149.125C790.122 146.375 789.831 144.083 789.247 142.25C788.664 140.375 787.747 138.979 786.497 138.062C785.247 137.146 783.581 136.688 781.497 136.688C779.747 136.688 778.268 137.042 777.06 137.75C775.852 138.458 774.893 139.562 774.185 141.062C773.477 142.562 772.956 144.521 772.622 146.938C772.289 149.312 772.122 152.167 772.122 155.5V161.062C772.122 164.188 772.393 166.812 772.935 168.938C773.477 171.021 774.268 172.729 775.31 174.062C776.393 175.354 777.706 176.292 779.247 176.875C780.789 177.417 782.581 177.688 784.622 177.688C787.706 177.688 790.477 177.146 792.935 176.062C795.435 174.938 797.56 173.417 799.31 171.5L806.31 182.125C805.102 183.708 803.435 185.292 801.31 186.875C799.185 188.458 796.643 189.75 793.685 190.75C790.727 191.75 787.31 192.25 783.435 192.25ZM827.255 138.438V191H809.755V123.375H826.255L827.255 138.438ZM843.193 122.875L842.943 140.312C842.151 140.146 841.193 140.021 840.068 139.938C838.984 139.854 838.026 139.812 837.193 139.812C835.234 139.812 833.568 140.125 832.193 140.75C830.818 141.333 829.672 142.229 828.755 143.438C827.88 144.604 827.213 146.062 826.755 147.812C826.297 149.562 826.026 151.542 825.943 153.75L822.63 152.5C822.63 148.083 822.963 144.042 823.63 140.375C824.338 136.667 825.38 133.458 826.755 130.75C828.13 128 829.776 125.875 831.693 124.375C833.651 122.875 835.859 122.125 838.318 122.125C839.151 122.125 840.026 122.208 840.943 122.375C841.901 122.5 842.651 122.667 843.193 122.875ZM872.388 175.438V144.188C872.388 142.146 872.138 140.521 871.638 139.312C871.179 138.104 870.471 137.229 869.513 136.688C868.596 136.104 867.471 135.812 866.138 135.812C864.638 135.812 863.388 136.125 862.388 136.75C861.388 137.375 860.638 138.271 860.138 139.438C859.679 140.604 859.45 142 859.45 143.625H841.888C841.888 140.708 842.45 137.958 843.575 135.375C844.7 132.75 846.346 130.458 848.513 128.5C850.721 126.5 853.346 124.938 856.388 123.812C859.429 122.688 862.846 122.125 866.638 122.125C871.138 122.125 875.138 122.896 878.638 124.438C882.138 125.938 884.908 128.333 886.95 131.625C888.992 134.917 890.013 139.188 890.013 144.438V174.562C890.013 178.354 890.2 181.438 890.575 183.812C890.992 186.188 891.596 188.229 892.388 189.938V191H874.763C873.971 189.125 873.367 186.792 872.95 184C872.575 181.167 872.388 178.312 872.388 175.438ZM874.513 149.688L874.575 160.188H868.138C866.471 160.188 865.013 160.458 863.763 161C862.554 161.542 861.533 162.312 860.7 163.312C859.867 164.271 859.242 165.396 858.825 166.688C858.45 167.979 858.263 169.354 858.263 170.812C858.263 172.438 858.492 173.812 858.95 174.938C859.408 176.062 860.096 176.917 861.013 177.5C861.929 178.083 863.013 178.375 864.263 178.375C866.179 178.375 867.846 177.979 869.263 177.188C870.679 176.396 871.721 175.438 872.388 174.312C873.096 173.188 873.325 172.146 873.075 171.188L877.075 178C876.575 179.542 875.888 181.146 875.013 182.812C874.179 184.479 873.117 186.021 871.825 187.438C870.533 188.854 868.929 190.021 867.013 190.938C865.138 191.812 862.908 192.25 860.325 192.25C856.7 192.25 853.388 191.417 850.388 189.75C847.388 188.083 845.013 185.75 843.263 182.75C841.554 179.75 840.7 176.188 840.7 172.062C840.7 168.646 841.242 165.562 842.325 162.812C843.45 160.021 845.117 157.667 847.325 155.75C849.533 153.792 852.325 152.292 855.7 151.25C859.075 150.208 863.033 149.688 867.575 149.688H874.513ZM924.77 123.375V136.562H890.27V123.375H924.77ZM898.208 106.688H915.645V170.375C915.645 172.25 915.833 173.688 916.208 174.688C916.583 175.688 917.145 176.396 917.895 176.812C918.687 177.188 919.728 177.375 921.02 177.375C921.895 177.375 922.708 177.333 923.458 177.25C924.208 177.125 924.77 177 925.145 176.875V190.562C923.77 191.104 922.312 191.521 920.77 191.812C919.27 192.104 917.478 192.25 915.395 192.25C911.895 192.25 908.853 191.583 906.27 190.25C903.728 188.917 901.749 186.792 900.333 183.875C898.916 180.917 898.208 177.042 898.208 172.25V106.688ZM945.215 123.375V191H927.653V123.375H945.215ZM926.84 105.875C926.84 103.167 927.694 100.938 929.403 99.1875C931.153 97.3958 933.486 96.5 936.403 96.5C939.361 96.5 941.694 97.3958 943.403 99.1875C945.111 100.938 945.965 103.167 945.965 105.875C945.965 108.542 945.09 110.771 943.34 112.562C941.632 114.312 939.34 115.188 936.465 115.188C933.507 115.188 931.153 114.312 929.403 112.562C927.694 110.771 926.84 108.542 926.84 105.875ZM949.41 159.5V154.938C949.41 149.646 950.035 144.958 951.285 140.875C952.577 136.792 954.41 133.375 956.785 130.625C959.16 127.833 962.014 125.729 965.347 124.312C968.722 122.854 972.493 122.125 976.66 122.125C980.868 122.125 984.639 122.854 987.972 124.312C991.347 125.729 994.222 127.833 996.597 130.625C999.014 133.375 1000.87 136.792 1002.16 140.875C1003.45 144.958 1004.1 149.646 1004.1 154.938V159.5C1004.1 164.75 1003.45 169.417 1002.16 173.5C1000.87 177.583 999.014 181.021 996.597 183.812C994.222 186.604 991.368 188.708 988.035 190.125C984.702 191.542 980.952 192.25 976.785 192.25C972.618 192.25 968.847 191.542 965.472 190.125C962.139 188.708 959.264 186.604 956.847 183.812C954.431 181.021 952.577 177.583 951.285 173.5C950.035 169.417 949.41 164.75 949.41 159.5ZM966.91 154.938V159.5C966.91 162.625 967.118 165.333 967.535 167.625C967.993 169.917 968.639 171.812 969.472 173.312C970.347 174.812 971.389 175.917 972.597 176.625C973.806 177.333 975.202 177.688 976.785 177.688C978.368 177.688 979.785 177.333 981.035 176.625C982.285 175.917 983.306 174.812 984.097 173.312C984.931 171.812 985.535 169.917 985.91 167.625C986.327 165.333 986.535 162.625 986.535 159.5V154.938C986.535 151.896 986.306 149.229 985.847 146.938C985.389 144.604 984.743 142.708 983.91 141.25C983.077 139.75 982.035 138.625 980.785 137.875C979.577 137.083 978.202 136.688 976.66 136.688C975.118 136.688 973.743 137.083 972.535 137.875C971.368 138.625 970.347 139.75 969.472 141.25C968.639 142.708 967.993 144.604 967.535 146.938C967.118 149.229 966.91 151.896 966.91 154.938ZM1024.67 137.812V191H1007.1V123.375H1023.54L1024.67 137.812ZM1022.04 154.875L1017.35 155C1017.27 149.917 1017.75 145.354 1018.79 141.312C1019.88 137.271 1021.4 133.833 1023.35 131C1025.35 128.125 1027.73 125.938 1030.48 124.438C1033.27 122.896 1036.38 122.125 1039.79 122.125C1042.42 122.125 1044.81 122.583 1046.98 123.5C1049.19 124.417 1051.08 125.875 1052.67 127.875C1054.25 129.875 1055.48 132.542 1056.35 135.875C1057.23 139.167 1057.67 143.208 1057.67 148V191H1040.1V147.875C1040.1 144.958 1039.81 142.708 1039.23 141.125C1038.65 139.5 1037.77 138.375 1036.6 137.75C1035.44 137.083 1033.98 136.75 1032.23 136.75C1030.56 136.75 1029.08 137.229 1027.79 138.188C1026.5 139.104 1025.42 140.375 1024.54 142C1023.71 143.625 1023.06 145.542 1022.6 147.75C1022.19 149.958 1022 152.333 1022.04 154.875ZM1116.49 158.938H1097.87V143.75H1116.49C1119.08 143.75 1121.18 143.167 1122.81 142C1124.47 140.833 1125.68 139.229 1126.43 137.188C1127.18 135.104 1127.56 132.771 1127.56 130.188C1127.56 127.562 1127.16 125.125 1126.37 122.875C1125.62 120.583 1124.43 118.729 1122.81 117.312C1121.22 115.896 1119.12 115.188 1116.49 115.188H1103.74V191H1085.49V100H1116.49C1122.62 100 1127.89 101.292 1132.31 103.875C1136.72 106.458 1140.1 110.021 1142.43 114.562C1144.81 119.062 1145.99 124.229 1145.99 130.062C1145.99 135.938 1144.81 141.042 1142.43 145.375C1140.1 149.667 1136.72 153 1132.31 155.375C1127.89 157.75 1122.62 158.938 1116.49 158.938ZM1178.75 175.438V144.188C1178.75 142.146 1178.5 140.521 1178 139.312C1177.54 138.104 1176.84 137.229 1175.88 136.688C1174.96 136.104 1173.84 135.812 1172.5 135.812C1171 135.812 1169.75 136.125 1168.75 136.75C1167.75 137.375 1167 138.271 1166.5 139.438C1166.04 140.604 1165.82 142 1165.82 143.625H1148.25C1148.25 140.708 1148.82 137.958 1149.94 135.375C1151.07 132.75 1152.71 130.458 1154.88 128.5C1157.09 126.5 1159.71 124.938 1162.75 123.812C1165.79 122.688 1169.21 122.125 1173 122.125C1177.5 122.125 1181.5 122.896 1185 124.438C1188.5 125.938 1191.27 128.333 1193.32 131.625C1195.36 134.917 1196.38 139.188 1196.38 144.438V174.562C1196.38 178.354 1196.57 181.438 1196.94 183.812C1197.36 186.188 1197.96 188.229 1198.75 189.938V191H1181.13C1180.34 189.125 1179.73 186.792 1179.32 184C1178.94 181.167 1178.75 178.312 1178.75 175.438ZM1180.88 149.688L1180.94 160.188H1174.5C1172.84 160.188 1171.38 160.458 1170.13 161C1168.92 161.542 1167.9 162.312 1167.07 163.312C1166.23 164.271 1165.61 165.396 1165.19 166.688C1164.82 167.979 1164.63 169.354 1164.63 170.812C1164.63 172.438 1164.86 173.812 1165.32 174.938C1165.77 176.062 1166.46 176.917 1167.38 177.5C1168.29 178.083 1169.38 178.375 1170.63 178.375C1172.54 178.375 1174.21 177.979 1175.63 177.188C1177.04 176.396 1178.09 175.438 1178.75 174.312C1179.46 173.188 1179.69 172.146 1179.44 171.188L1183.44 178C1182.94 179.542 1182.25 181.146 1181.38 182.812C1180.54 184.479 1179.48 186.021 1178.19 187.438C1176.9 188.854 1175.29 190.021 1173.38 190.938C1171.5 191.812 1169.27 192.25 1166.69 192.25C1163.07 192.25 1159.75 191.417 1156.75 189.75C1153.75 188.083 1151.38 185.75 1149.63 182.75C1147.92 179.75 1147.07 176.188 1147.07 172.062C1147.07 168.646 1147.61 165.562 1148.69 162.812C1149.82 160.021 1151.48 157.667 1153.69 155.75C1155.9 153.792 1158.69 152.292 1162.07 151.25C1165.44 150.208 1169.4 149.688 1173.94 149.688H1180.88ZM1237.2 123.375H1253.07V191C1253.07 197.167 1251.89 202.208 1249.51 206.125C1247.18 210.083 1243.91 212.979 1239.7 214.812C1235.53 216.688 1230.66 217.625 1225.07 217.625C1222.95 217.625 1220.55 217.333 1217.89 216.75C1215.26 216.167 1212.72 215.271 1210.26 214.062C1207.8 212.896 1205.78 211.479 1204.2 209.812L1210.14 197.688C1211.76 199.312 1213.89 200.688 1216.51 201.812C1219.14 202.979 1221.72 203.562 1224.26 203.562C1226.72 203.562 1228.76 203.167 1230.39 202.375C1232.05 201.625 1233.3 200.333 1234.14 198.5C1235.01 196.667 1235.45 194.208 1235.45 191.125V139.062L1237.2 123.375ZM1199.45 159.562V155.062C1199.45 149.562 1199.97 144.75 1201.01 140.625C1202.05 136.5 1203.55 133.062 1205.51 130.312C1207.47 127.562 1209.86 125.521 1212.7 124.188C1215.57 122.812 1218.78 122.125 1222.32 122.125C1226.03 122.125 1229.14 122.938 1231.64 124.562C1234.14 126.146 1236.16 128.375 1237.7 131.25C1239.28 134.125 1240.49 137.521 1241.32 141.438C1242.2 145.354 1242.86 149.646 1243.32 154.312V160.812C1242.86 165.229 1242.11 169.354 1241.07 173.188C1240.07 177.021 1238.74 180.354 1237.07 183.188C1235.41 186.021 1233.36 188.25 1230.95 189.875C1228.53 191.458 1225.61 192.25 1222.2 192.25C1218.7 192.25 1215.53 191.542 1212.7 190.125C1209.91 188.708 1207.51 186.625 1205.51 183.875C1203.55 181.083 1202.05 177.667 1201.01 173.625C1199.97 169.542 1199.45 164.854 1199.45 159.562ZM1217.01 155.062V159.562C1217.01 162.729 1217.2 165.458 1217.57 167.75C1217.99 170 1218.61 171.854 1219.45 173.312C1220.28 174.729 1221.34 175.792 1222.64 176.5C1223.97 177.167 1225.53 177.5 1227.32 177.5C1229.86 177.5 1231.89 176.917 1233.39 175.75C1234.93 174.542 1236.05 172.896 1236.76 170.812C1237.51 168.688 1237.93 166.25 1238.01 163.5V151.688C1237.97 149.396 1237.7 147.333 1237.2 145.5C1236.74 143.667 1236.09 142.104 1235.26 140.812C1234.43 139.521 1233.34 138.521 1232.01 137.812C1230.72 137.104 1229.2 136.75 1227.45 136.75C1225.66 136.75 1224.11 137.104 1222.82 137.812C1221.53 138.521 1220.45 139.625 1219.57 141.125C1218.74 142.583 1218.09 144.479 1217.64 146.812C1217.22 149.104 1217.01 151.854 1217.01 155.062ZM1285.71 192.25C1281.08 192.25 1276.98 191.542 1273.39 190.125C1269.85 188.708 1266.85 186.667 1264.39 184C1261.93 181.292 1260.06 178.021 1258.77 174.188C1257.48 170.354 1256.83 165.979 1256.83 161.062V155.5C1256.83 150 1257.46 145.188 1258.71 141.062C1259.96 136.896 1261.73 133.396 1264.02 130.562C1266.31 127.729 1269.12 125.625 1272.46 124.25C1275.83 122.833 1279.64 122.125 1283.89 122.125C1288.14 122.125 1291.87 122.833 1295.08 124.25C1298.33 125.625 1301.02 127.708 1303.14 130.5C1305.27 133.25 1306.87 136.667 1307.96 140.75C1309.04 144.833 1309.58 149.583 1309.58 155V163H1264.27V150.688H1292.39V149.125C1292.39 146.375 1292.1 144.083 1291.52 142.25C1290.93 140.375 1290.02 138.979 1288.77 138.062C1287.52 137.146 1285.85 136.688 1283.77 136.688C1282.02 136.688 1280.54 137.042 1279.33 137.75C1278.12 138.458 1277.16 139.562 1276.46 141.062C1275.75 142.562 1275.23 144.521 1274.89 146.938C1274.56 149.312 1274.39 152.167 1274.39 155.5V161.062C1274.39 164.188 1274.66 166.812 1275.21 168.938C1275.75 171.021 1276.54 172.729 1277.58 174.062C1278.66 175.354 1279.98 176.292 1281.52 176.875C1283.06 177.417 1284.85 177.688 1286.89 177.688C1289.98 177.688 1292.75 177.146 1295.21 176.062C1297.71 174.938 1299.83 173.417 1301.58 171.5L1308.58 182.125C1307.37 183.708 1305.71 185.292 1303.58 186.875C1301.46 188.458 1298.91 189.75 1295.96 190.75C1293 191.75 1289.58 192.25 1285.71 192.25Z" fill="black"/>
</g>
<defs>
<clipPath id="clip0_7_203">
<rect width="1728" height="1117" fill="white"/>
</clipPath>
</defs>
</svg>
