<svg width="1728" height="1117" viewBox="0 0 1728 1117" fill="none" xmlns="http://www.w3.org/2000/svg">
<g clip-path="url(#clip0_7_181)">
<rect width="1728" height="1117" fill="white"/>
<rect y="1" width="1728" height="604" fill="#D9D9D9"/>
<line x1="55" y1="671.5" x2="617" y2="671.5" stroke="#7E7E7E" stroke-width="11"/>
<line x1="52" y1="893.5" x2="614" y2="893.5" stroke="#7E7E7E" stroke-width="11"/>
<line x1="54" y1="708.5" x2="616" y2="708.5" stroke="#7E7E7E" stroke-width="11"/>
<line x1="51" y1="930.5" x2="613" y2="930.5" stroke="#7E7E7E" stroke-width="11"/>
<line x1="53" y1="745.5" x2="615" y2="745.5" stroke="#7E7E7E" stroke-width="11"/>
<line x1="50" y1="967.5" x2="612" y2="967.5" stroke="#7E7E7E" stroke-width="11"/>
<line x1="52" y1="782.5" x2="614" y2="782.5" stroke="#7E7E7E" stroke-width="11"/>
<line x1="49" y1="1004.5" x2="611" y2="1004.5" stroke="#7E7E7E" stroke-width="11"/>
<rect x="1387.5" y="241.5" width="164" height="178" stroke="black"/>
<path d="M1433.75 398.44V262.56L1541.07 330.5L1433.75 398.44Z" fill="#7E7E7E" stroke="black"/>
<line y1="604.5" x2="1728.13" y2="604.5" stroke="black"/>
<line x1="1331" y1="707.5" x2="1608" y2="707.5" stroke="#7E7E7E" stroke-width="11"/>
<line x1="1331" y1="762.5" x2="1608" y2="762.5" stroke="#7E7E7E" stroke-width="11"/>
<line x1="1331" y1="818.5" x2="1608" y2="818.5" stroke="#7E7E7E" stroke-width="11"/>
<line x1="1331" y1="871.5" x2="1608" y2="871.5" stroke="#7E7E7E" stroke-width="11"/>
<rect x="251" y="57" width="1034" height="143" fill="#7E7E7E"/>
<rect x="251" y="274" width="502" height="74" fill="#7E7E7E"/>
<rect x="255" y="420" width="502" height="74" fill="#7E7E7E"/>
<rect x="1331" y="942" width="276" height="127" fill="#7E7E7E"/>
<rect x="26" y="33" width="188" height="192" fill="#7E7E7E"/>
<path d="M344.75 135.688H362.938C362.688 142.521 361.312 148.292 358.812 153C356.312 157.667 352.75 161.208 348.125 163.625C343.542 166.042 338 167.25 331.5 167.25C326.458 167.25 321.979 166.417 318.062 164.75C314.146 163.042 310.812 160.542 308.062 157.25C305.312 153.958 303.229 149.896 301.812 145.062C300.438 140.188 299.75 134.583 299.75 128.25V112.812C299.75 106.479 300.479 100.875 301.938 96C303.438 91.125 305.562 87.0417 308.312 83.75C311.104 80.4167 314.458 77.9167 318.375 76.25C322.333 74.5417 326.792 73.6875 331.75 73.6875C338.375 73.6875 343.917 74.9375 348.375 77.4375C352.833 79.9375 356.271 83.5833 358.688 88.375C361.146 93.125 362.625 98.9375 363.125 105.812H344.875C344.75 101.479 344.25 98.0833 343.375 95.625C342.542 93.125 341.208 91.375 339.375 90.375C337.542 89.3333 335 88.8125 331.75 88.8125C329.333 88.8125 327.25 89.25 325.5 90.125C323.75 90.9583 322.312 92.3125 321.188 94.1875C320.062 96.0625 319.229 98.5208 318.688 101.562C318.188 104.604 317.938 108.312 317.938 112.688V128.25C317.938 132.542 318.167 136.208 318.625 139.25C319.083 142.25 319.812 144.708 320.812 146.625C321.812 148.542 323.167 149.938 324.875 150.812C326.625 151.688 328.833 152.125 331.5 152.125C334.583 152.125 337.062 151.667 338.938 150.75C340.854 149.833 342.271 148.188 343.188 145.812C344.104 143.438 344.625 140.062 344.75 135.688ZM384.195 70V166H366.632V70H384.195ZM408.765 98.375V166H391.202V98.375H408.765ZM390.39 80.875C390.39 78.1667 391.244 75.9375 392.952 74.1875C394.702 72.3958 397.036 71.5 399.952 71.5C402.911 71.5 405.244 72.3958 406.952 74.1875C408.661 75.9375 409.515 78.1667 409.515 80.875C409.515 83.5417 408.64 85.7708 406.89 87.5625C405.182 89.3125 402.89 90.1875 400.015 90.1875C397.057 90.1875 394.702 89.3125 392.952 87.5625C391.244 85.7708 390.39 83.5417 390.39 80.875ZM439.397 152.688C441.022 152.688 442.418 152.354 443.585 151.688C444.793 151.021 445.71 149.938 446.335 148.438C446.96 146.938 447.293 145 447.335 142.625H463.772C463.772 147.708 462.689 152.104 460.522 155.812C458.397 159.479 455.522 162.312 451.897 164.312C448.314 166.271 444.252 167.25 439.71 167.25C435.168 167.25 431.21 166.521 427.835 165.062C424.46 163.604 421.668 161.479 419.46 158.688C417.293 155.896 415.647 152.5 414.522 148.5C413.439 144.458 412.897 139.833 412.897 134.625V129.688C412.897 124.562 413.439 119.979 414.522 115.938C415.647 111.896 417.293 108.479 419.46 105.688C421.668 102.896 424.439 100.771 427.772 99.3125C431.147 97.8542 435.106 97.125 439.647 97.125C444.522 97.125 448.752 98.1458 452.335 100.188C455.918 102.188 458.71 105.146 460.71 109.062C462.752 112.979 463.772 117.812 463.772 123.562H447.335C447.293 120.979 446.981 118.833 446.397 117.125C445.856 115.375 445.002 114.042 443.835 113.125C442.71 112.167 441.21 111.688 439.335 111.688C437.377 111.688 435.793 112.104 434.585 112.938C433.418 113.729 432.522 114.896 431.897 116.438C431.314 117.938 430.918 119.812 430.71 122.062C430.502 124.312 430.397 126.854 430.397 129.688V134.625C430.397 137.667 430.481 140.312 430.647 142.562C430.856 144.771 431.252 146.646 431.835 148.188C432.46 149.688 433.356 150.812 434.522 151.562C435.731 152.312 437.356 152.688 439.397 152.688ZM483.655 69.9375V166H466.155V69.9375H483.655ZM519.217 98.375L495.405 132L481.092 148.062L474.905 134.75L485.905 118.688L498.342 98.375H519.217ZM500.967 166L486.217 134.938L498.28 123.812L521.03 166H500.967ZM571.045 98.375V111.562H536.545V98.375H571.045ZM544.482 81.6875H561.92V145.375C561.92 147.25 562.107 148.688 562.482 149.688C562.857 150.688 563.42 151.396 564.17 151.812C564.962 152.188 566.003 152.375 567.295 152.375C568.17 152.375 568.982 152.333 569.732 152.25C570.482 152.125 571.045 152 571.42 151.875V165.562C570.045 166.104 568.587 166.521 567.045 166.812C565.545 167.104 563.753 167.25 561.67 167.25C558.17 167.25 555.128 166.583 552.545 165.25C550.003 163.917 548.024 161.792 546.607 158.875C545.191 155.917 544.482 152.042 544.482 147.25V81.6875ZM590.177 70V166H572.677V70H590.177ZM587.677 129.875L582.927 130C582.927 125.25 583.407 120.875 584.365 116.875C585.365 112.875 586.802 109.396 588.677 106.438C590.552 103.479 592.823 101.188 595.49 99.5625C598.198 97.9375 601.177 97.125 604.427 97.125C607.219 97.125 609.761 97.6042 612.052 98.5625C614.344 99.5208 616.323 101.021 617.99 103.062C619.698 105.104 621.011 107.792 621.927 111.125C622.844 114.458 623.302 118.521 623.302 123.312V166H605.74V123.188C605.74 120.271 605.448 117.979 604.865 116.312C604.282 114.646 603.407 113.479 602.24 112.812C601.073 112.104 599.615 111.75 597.865 111.75C595.99 111.75 594.386 112.229 593.052 113.188C591.761 114.104 590.719 115.375 589.927 117C589.136 118.625 588.552 120.542 588.177 122.75C587.844 124.958 587.677 127.333 587.677 129.875ZM645.935 113.438V166H628.435V98.375H644.935L645.935 113.438ZM661.872 97.875L661.622 115.312C660.831 115.146 659.872 115.021 658.747 114.938C657.664 114.854 656.706 114.812 655.872 114.812C653.914 114.812 652.247 115.125 650.872 115.75C649.497 116.333 648.352 117.229 647.435 118.438C646.56 119.604 645.893 121.062 645.435 122.812C644.977 124.562 644.706 126.542 644.622 128.75L641.31 127.5C641.31 123.083 641.643 119.042 642.31 115.375C643.018 111.667 644.06 108.458 645.435 105.75C646.81 103 648.456 100.875 650.372 99.375C652.331 97.875 654.539 97.125 656.997 97.125C657.831 97.125 658.706 97.2083 659.622 97.375C660.581 97.5 661.331 97.6667 661.872 97.875ZM658.88 134.5V129.938C658.88 124.646 659.505 119.958 660.755 115.875C662.047 111.792 663.88 108.375 666.255 105.625C668.63 102.833 671.484 100.729 674.818 99.3125C678.193 97.8542 681.963 97.125 686.13 97.125C690.338 97.125 694.109 97.8542 697.443 99.3125C700.818 100.729 703.693 102.833 706.068 105.625C708.484 108.375 710.338 111.792 711.63 115.875C712.922 119.958 713.568 124.646 713.568 129.938V134.5C713.568 139.75 712.922 144.417 711.63 148.5C710.338 152.583 708.484 156.021 706.068 158.812C703.693 161.604 700.838 163.708 697.505 165.125C694.172 166.542 690.422 167.25 686.255 167.25C682.088 167.25 678.318 166.542 674.943 165.125C671.609 163.708 668.734 161.604 666.318 158.812C663.901 156.021 662.047 152.583 660.755 148.5C659.505 144.417 658.88 139.75 658.88 134.5ZM676.38 129.938V134.5C676.38 137.625 676.588 140.333 677.005 142.625C677.463 144.917 678.109 146.812 678.943 148.312C679.818 149.812 680.859 150.917 682.068 151.625C683.276 152.333 684.672 152.688 686.255 152.688C687.838 152.688 689.255 152.333 690.505 151.625C691.755 150.917 692.776 149.812 693.568 148.312C694.401 146.812 695.005 144.917 695.38 142.625C695.797 140.333 696.005 137.625 696.005 134.5V129.938C696.005 126.896 695.776 124.229 695.318 121.938C694.859 119.604 694.213 117.708 693.38 116.25C692.547 114.75 691.505 113.625 690.255 112.875C689.047 112.083 687.672 111.688 686.13 111.688C684.588 111.688 683.213 112.083 682.005 112.875C680.838 113.625 679.818 114.75 678.943 116.25C678.109 117.708 677.463 119.604 677.005 121.938C676.588 124.229 676.38 126.896 676.38 129.938ZM749.638 149.75V98.375H767.2V166H750.7L749.638 149.75ZM751.638 135.812L756.513 135.688C756.513 140.229 756.075 144.438 755.2 148.312C754.325 152.146 753.013 155.479 751.263 158.312C749.513 161.146 747.325 163.354 744.7 164.938C742.075 166.479 738.971 167.25 735.388 167.25C732.638 167.25 730.096 166.792 727.763 165.875C725.471 164.917 723.492 163.438 721.825 161.438C720.158 159.396 718.846 156.792 717.888 153.625C716.971 150.417 716.513 146.562 716.513 142.062V98.375H734.075V142.25C734.075 144.083 734.242 145.667 734.575 147C734.908 148.292 735.367 149.354 735.95 150.188C736.533 151.021 737.221 151.625 738.013 152C738.804 152.333 739.7 152.5 740.7 152.5C743.45 152.5 745.617 151.792 747.2 150.375C748.825 148.917 749.971 146.938 750.638 144.438C751.304 141.896 751.638 139.021 751.638 135.812ZM807.832 98.375H823.707V166C823.707 172.167 822.52 177.208 820.145 181.125C817.812 185.083 814.541 187.979 810.332 189.812C806.166 191.688 801.291 192.625 795.707 192.625C793.582 192.625 791.187 192.333 788.52 191.75C785.895 191.167 783.353 190.271 780.895 189.062C778.437 187.896 776.416 186.479 774.832 184.812L780.77 172.688C782.395 174.312 784.52 175.688 787.145 176.812C789.77 177.979 792.353 178.562 794.895 178.562C797.353 178.562 799.395 178.167 801.02 177.375C802.687 176.625 803.937 175.333 804.77 173.5C805.645 171.667 806.082 169.208 806.082 166.125V114.062L807.832 98.375ZM770.082 134.562V130.062C770.082 124.562 770.603 119.75 771.645 115.625C772.687 111.5 774.187 108.062 776.145 105.312C778.103 102.562 780.499 100.521 783.332 99.1875C786.207 97.8125 789.416 97.125 792.957 97.125C796.666 97.125 799.77 97.9375 802.27 99.5625C804.77 101.146 806.791 103.375 808.332 106.25C809.916 109.125 811.124 112.521 811.957 116.438C812.832 120.354 813.499 124.646 813.957 129.312V135.812C813.499 140.229 812.749 144.354 811.707 148.188C810.707 152.021 809.374 155.354 807.707 158.188C806.041 161.021 803.999 163.25 801.582 164.875C799.166 166.458 796.249 167.25 792.832 167.25C789.332 167.25 786.166 166.542 783.332 165.125C780.541 163.708 778.145 161.625 776.145 158.875C774.187 156.083 772.687 152.667 771.645 148.625C770.603 144.542 770.082 139.854 770.082 134.562ZM787.645 130.062V134.562C787.645 137.729 787.832 140.458 788.207 142.75C788.624 145 789.249 146.854 790.082 148.312C790.916 149.729 791.978 150.792 793.27 151.5C794.603 152.167 796.166 152.5 797.957 152.5C800.499 152.5 802.52 151.917 804.02 150.75C805.562 149.542 806.687 147.896 807.395 145.812C808.145 143.688 808.562 141.25 808.645 138.5V126.688C808.603 124.396 808.332 122.333 807.832 120.5C807.374 118.667 806.728 117.104 805.895 115.812C805.062 114.521 803.978 113.521 802.645 112.812C801.353 112.104 799.832 111.75 798.082 111.75C796.291 111.75 794.749 112.104 793.457 112.812C792.166 113.521 791.082 114.625 790.207 116.125C789.374 117.583 788.728 119.479 788.27 121.812C787.853 124.104 787.645 126.854 787.645 130.062ZM846.153 70V166H828.653V70H846.153ZM843.653 129.875L838.903 130C838.903 125.25 839.382 120.875 840.34 116.875C841.34 112.875 842.778 109.396 844.653 106.438C846.528 103.479 848.798 101.188 851.465 99.5625C854.173 97.9375 857.153 97.125 860.403 97.125C863.194 97.125 865.736 97.6042 868.028 98.5625C870.319 99.5208 872.298 101.021 873.965 103.062C875.673 105.104 876.986 107.792 877.903 111.125C878.819 114.458 879.278 118.521 879.278 123.312V166H861.715V123.188C861.715 120.271 861.423 117.979 860.84 116.312C860.257 114.646 859.382 113.479 858.215 112.812C857.048 112.104 855.59 111.75 853.84 111.75C851.965 111.75 850.361 112.229 849.028 113.188C847.736 114.104 846.694 115.375 845.903 117C845.111 118.625 844.528 120.542 844.153 122.75C843.819 124.958 843.653 127.333 843.653 129.875ZM938.105 133.938H919.48V118.75H938.105C940.688 118.75 942.792 118.167 944.417 117C946.084 115.833 947.292 114.229 948.042 112.188C948.792 110.104 949.167 107.771 949.167 105.188C949.167 102.562 948.772 100.125 947.98 97.875C947.23 95.5833 946.042 93.7292 944.417 92.3125C942.834 90.8958 940.73 90.1875 938.105 90.1875H925.355V166H907.105V75H938.105C944.23 75 949.501 76.2917 953.917 78.875C958.334 81.4583 961.709 85.0208 964.042 89.5625C966.417 94.0625 967.605 99.2292 967.605 105.062C967.605 110.938 966.417 116.042 964.042 120.375C961.709 124.667 958.334 128 953.917 130.375C949.501 132.75 944.23 133.938 938.105 133.938ZM1000.36 150.438V119.188C1000.36 117.146 1000.11 115.521 999.612 114.312C999.154 113.104 998.446 112.229 997.487 111.688C996.571 111.104 995.446 110.812 994.112 110.812C992.612 110.812 991.362 111.125 990.362 111.75C989.362 112.375 988.612 113.271 988.112 114.438C987.654 115.604 987.425 117 987.425 118.625H969.862C969.862 115.708 970.425 112.958 971.55 110.375C972.675 107.75 974.321 105.458 976.487 103.5C978.696 101.5 981.321 99.9375 984.362 98.8125C987.404 97.6875 990.821 97.125 994.612 97.125C999.112 97.125 1003.11 97.8958 1006.61 99.4375C1010.11 100.938 1012.88 103.333 1014.92 106.625C1016.97 109.917 1017.99 114.188 1017.99 119.438V149.562C1017.99 153.354 1018.17 156.438 1018.55 158.812C1018.97 161.188 1019.57 163.229 1020.36 164.938V166H1002.74C1001.95 164.125 1001.34 161.792 1000.92 159C1000.55 156.167 1000.36 153.312 1000.36 150.438ZM1002.49 124.688L1002.55 135.188H996.112C994.446 135.188 992.987 135.458 991.737 136C990.529 136.542 989.508 137.312 988.675 138.312C987.842 139.271 987.217 140.396 986.8 141.688C986.425 142.979 986.237 144.354 986.237 145.812C986.237 147.438 986.467 148.812 986.925 149.938C987.383 151.062 988.071 151.917 988.987 152.5C989.904 153.083 990.987 153.375 992.237 153.375C994.154 153.375 995.821 152.979 997.237 152.188C998.654 151.396 999.696 150.438 1000.36 149.312C1001.07 148.188 1001.3 147.146 1001.05 146.188L1005.05 153C1004.55 154.542 1003.86 156.146 1002.99 157.812C1002.15 159.479 1001.09 161.021 999.8 162.438C998.508 163.854 996.904 165.021 994.987 165.938C993.112 166.812 990.883 167.25 988.3 167.25C984.675 167.25 981.362 166.417 978.362 164.75C975.362 163.083 972.987 160.75 971.237 157.75C969.529 154.75 968.675 151.188 968.675 147.062C968.675 143.646 969.217 140.562 970.3 137.812C971.425 135.021 973.092 132.667 975.3 130.75C977.508 128.792 980.3 127.292 983.675 126.25C987.05 125.208 991.008 124.688 995.55 124.688H1002.49ZM1058.81 98.375H1074.68V166C1074.68 172.167 1073.49 177.208 1071.12 181.125C1068.79 185.083 1065.52 187.979 1061.31 189.812C1057.14 191.688 1052.27 192.625 1046.68 192.625C1044.56 192.625 1042.16 192.333 1039.49 191.75C1036.87 191.167 1034.33 190.271 1031.87 189.062C1029.41 187.896 1027.39 186.479 1025.81 184.812L1031.74 172.688C1033.37 174.312 1035.49 175.688 1038.12 176.812C1040.74 177.979 1043.33 178.562 1045.87 178.562C1048.33 178.562 1050.37 178.167 1051.99 177.375C1053.66 176.625 1054.91 175.333 1055.74 173.5C1056.62 171.667 1057.06 169.208 1057.06 166.125V114.062L1058.81 98.375ZM1021.06 134.562V130.062C1021.06 124.562 1021.58 119.75 1022.62 115.625C1023.66 111.5 1025.16 108.062 1027.12 105.312C1029.08 102.562 1031.47 100.521 1034.31 99.1875C1037.18 97.8125 1040.39 97.125 1043.93 97.125C1047.64 97.125 1050.74 97.9375 1053.24 99.5625C1055.74 101.146 1057.77 103.375 1059.31 106.25C1060.89 109.125 1062.1 112.521 1062.93 116.438C1063.81 120.354 1064.47 124.646 1064.93 129.312V135.812C1064.47 140.229 1063.72 144.354 1062.68 148.188C1061.68 152.021 1060.35 155.354 1058.68 158.188C1057.02 161.021 1054.97 163.25 1052.56 164.875C1050.14 166.458 1047.22 167.25 1043.81 167.25C1040.31 167.25 1037.14 166.542 1034.31 165.125C1031.52 163.708 1029.12 161.625 1027.12 158.875C1025.16 156.083 1023.66 152.667 1022.62 148.625C1021.58 144.542 1021.06 139.854 1021.06 134.562ZM1038.62 130.062V134.562C1038.62 137.729 1038.81 140.458 1039.18 142.75C1039.6 145 1040.22 146.854 1041.06 148.312C1041.89 149.729 1042.95 150.792 1044.24 151.5C1045.58 152.167 1047.14 152.5 1048.93 152.5C1051.47 152.5 1053.49 151.917 1054.99 150.75C1056.54 149.542 1057.66 147.896 1058.37 145.812C1059.12 143.688 1059.54 141.25 1059.62 138.5V126.688C1059.58 124.396 1059.31 122.333 1058.81 120.5C1058.35 118.667 1057.7 117.104 1056.87 115.812C1056.04 114.521 1054.95 113.521 1053.62 112.812C1052.33 112.104 1050.81 111.75 1049.06 111.75C1047.27 111.75 1045.72 112.104 1044.43 112.812C1043.14 113.521 1042.06 114.625 1041.18 116.125C1040.35 117.583 1039.7 119.479 1039.24 121.812C1038.83 124.104 1038.62 126.854 1038.62 130.062ZM1107.32 167.25C1102.69 167.25 1098.59 166.542 1095 165.125C1091.46 163.708 1088.46 161.667 1086 159C1083.54 156.292 1081.67 153.021 1080.38 149.188C1079.09 145.354 1078.44 140.979 1078.44 136.062V130.5C1078.44 125 1079.07 120.188 1080.32 116.062C1081.57 111.896 1083.34 108.396 1085.63 105.562C1087.92 102.729 1090.73 100.625 1094.07 99.25C1097.44 97.8333 1101.25 97.125 1105.5 97.125C1109.75 97.125 1113.48 97.8333 1116.69 99.25C1119.94 100.625 1122.63 102.708 1124.75 105.5C1126.88 108.25 1128.48 111.667 1129.57 115.75C1130.65 119.833 1131.19 124.583 1131.19 130V138H1085.88V125.688H1114V124.125C1114 121.375 1113.71 119.083 1113.13 117.25C1112.54 115.375 1111.63 113.979 1110.38 113.062C1109.13 112.146 1107.46 111.688 1105.38 111.688C1103.63 111.688 1102.15 112.042 1100.94 112.75C1099.73 113.458 1098.77 114.562 1098.07 116.062C1097.36 117.562 1096.84 119.521 1096.5 121.938C1096.17 124.312 1096 127.167 1096 130.5V136.062C1096 139.188 1096.27 141.812 1096.82 143.938C1097.36 146.021 1098.15 147.729 1099.19 149.062C1100.27 150.354 1101.59 151.292 1103.13 151.875C1104.67 152.417 1106.46 152.688 1108.5 152.688C1111.59 152.688 1114.36 152.146 1116.82 151.062C1119.32 149.938 1121.44 148.417 1123.19 146.5L1130.19 157.125C1128.98 158.708 1127.32 160.292 1125.19 161.875C1123.07 163.458 1120.52 164.75 1117.57 165.75C1114.61 166.75 1111.19 167.25 1107.32 167.25Z" fill="black"/>
</g>
<defs>
<clipPath id="clip0_7_181">
<rect width="1728" height="1117" fill="white"/>
</clipPath>
</defs>
</svg>
