<svg width="60" height="34" viewBox="0 0 60 34" fill="none" xmlns="http://www.w3.org/2000/svg">
<path d="M6.99418 2.84555C-0.205822 5.24555 -0.768311 25.2178 4.49418 30.3456C16.9942 38.3456 29.9942 17.8455 26.9942 11.3455C24.6861 6.3446 14.794 11.4249 9.59249 14.9345C9.42394 15.0482 9.20639 14.8676 9.28634 14.6807C11.5479 9.3928 13.8957 0.545037 6.99418 2.84555Z" stroke="black" stroke-width="2"/>
<path d="M38.4492 16.1399C38.4377 16.2945 38.4249 16.4477 38.4108 16.5992C38.3826 16.9013 38.2834 16.8861 38.3471 16.5894C38.3791 16.4401 38.4132 16.2902 38.4492 16.1399C40.3093 8.39172 47.4677 -0.396876 53.5 4.71797C59.549 9.84695 57.5688 16.1593 52.7331 21.4936C46.1871 28.7145 34.4086 34.1431 30.2317 32.4177C25.422 30.4309 43.142 13.7396 52.7331 21.4936C57.5688 16.1593 59.549 9.84695 53.5 4.71797C47.4677 -0.396876 40.3093 8.39172 38.4492 16.1399Z" fill="#FFDBA6"/>
<path d="M30.2317 25.9177C22.565 17.9177 13.5 8.21799 25.4942 2.3456C36.4481 -3.01746 39.1322 8.87155 38.4108 16.5992C38.3826 16.9013 38.2834 16.8861 38.3471 16.5894C40.0312 8.73781 47.3507 -0.496064 53.5 4.71797C67.7375 16.79 37.4942 35.4177 30.2317 32.4177C24.9627 30.2412 46.7317 10.4177 55.2317 24.4177" stroke="black" stroke-width="2" stroke-linecap="round"/>
<circle cx="56.7317" cy="25.7178" r="2.5" fill="black"/>
<path d="M34.2317 24.7178C33.3984 26.7178 33 31.7178 37 31.7178" stroke="black" stroke-width="2" stroke-linecap="round"/>
<path d="M38.2317 22.2178C36.8983 24.5511 35.7 30.2178 40.5 30.2178" stroke="black" stroke-width="2" stroke-linecap="round"/>
</svg>
