<svg width="242" height="242" viewBox="0 0 242 242" fill="none" xmlns="http://www.w3.org/2000/svg">
<rect width="241.644" height="241.644" fill="black"/>
<g filter="url(#filter0_f_1748_301)">
<circle cx="121.741" cy="121.131" r="83.936" fill="white"/>
</g>
<circle cx="121.742" cy="121.133" r="79.6969" fill="black"/>
<path d="M66.2649 128.698C66.2649 127.666 66.6149 126.8 67.315 126.1C68.052 125.363 68.9363 124.994 69.9681 124.994H78.4246L76.9875 120.904C76.398 119.393 75.8084 117.975 75.2188 116.648C74.6661 115.285 74.0213 114.051 73.2843 112.945C72.6211 111.84 71.8657 111.25 71.0182 111.176C70.1339 111.25 69.3416 111.84 68.6415 112.945C67.9414 114.051 67.2966 115.285 66.707 116.648C66.1543 117.975 65.5832 119.393 64.9936 120.904L59.7428 135.275C59.3743 136.049 58.8953 136.693 58.3058 137.209C57.753 137.688 56.9056 137.928 55.7633 137.928C54.6947 137.928 53.8103 137.559 53.1102 136.822C52.447 136.085 52.1522 135.201 52.2259 134.169C52.2627 133.69 52.3733 133.248 52.5575 132.843L58.6374 117.146C60.3324 113.019 62.0274 109.684 63.7224 107.142C65.3805 104.636 67.8125 103.365 71.0182 103.328C74.1871 103.365 76.6006 104.636 78.2588 107.142C79.9538 109.61 81.6488 112.945 83.3438 117.146L89.4236 132.843C89.6079 133.248 89.7184 133.69 89.7553 134.169C89.8289 135.201 89.5157 136.085 88.8156 136.822C88.1524 137.559 87.2865 137.928 86.2179 137.928C85.0019 137.928 84.0991 137.688 83.5096 137.209C82.9569 136.693 82.4963 136.049 82.1278 135.275L81.0776 132.401H69.9681C68.9363 132.401 68.0704 132.032 67.3703 131.295C66.6333 130.595 66.2649 129.729 66.2649 128.698Z" fill="white"/>
<path d="M93.7479 118.568C93.1215 117.758 92.8635 116.855 92.9741 115.86C93.1215 114.865 93.6005 114.036 94.4112 113.373L105.3 104.916C106.11 104.179 107.031 103.811 108.063 103.811C109.058 103.848 109.906 104.216 110.606 104.916C111.306 105.58 111.674 106.409 111.711 107.403V134.487C111.49 136.697 110.274 137.895 108.063 138.079C107.031 138.079 106.129 137.748 105.355 137.084C104.618 136.384 104.249 135.518 104.249 134.487V115.142L98.9434 119.232C98.1328 119.858 97.23 120.098 96.2351 119.95C95.2034 119.84 94.3743 119.379 93.7479 118.568Z" fill="white"/>
<path d="M124.408 118.73C123.782 117.919 123.524 117.016 123.634 116.021C123.782 115.026 124.261 114.197 125.071 113.534L135.96 105.078C136.77 104.341 137.692 103.972 138.723 103.972C139.718 104.009 140.566 104.377 141.266 105.078C141.966 105.741 142.334 106.57 142.371 107.565V134.648C142.15 136.859 140.934 138.056 138.723 138.24C137.692 138.24 136.789 137.909 136.015 137.246C135.278 136.545 134.91 135.68 134.91 134.648V115.303L129.604 119.393C128.793 120.019 127.89 120.259 126.895 120.111C125.864 120.001 125.034 119.54 124.408 118.73Z" fill="white"/>
<path d="M158.121 104.617C159.152 104.617 160.037 104.967 160.774 105.667C161.511 106.331 161.897 107.178 161.934 108.21V109.26C161.897 110.771 161.99 112.171 162.211 113.461C162.469 114.713 163.058 115.837 163.979 116.832C164.901 117.827 166.061 118.361 167.461 118.435H182.993V108.32C182.993 107.289 183.361 106.441 184.098 105.778C184.872 105.078 185.775 104.728 186.806 104.728C189.017 104.912 190.233 106.11 190.454 108.32V121.143C190.454 124.091 190.049 126.873 189.238 129.489C188.501 131.811 187.286 133.782 185.591 135.403C183.932 136.988 181.814 137.854 179.234 138.001H159.337C158.342 137.964 157.494 137.614 156.794 136.951C156.131 136.251 155.781 135.403 155.744 134.409C155.744 133.377 156.076 132.492 156.739 131.755C157.439 131.019 158.305 130.632 159.337 130.595H177.355C178.755 130.521 179.916 129.987 180.837 128.992C181.685 128.071 182.256 127.021 182.551 125.841H165.582C163.003 125.694 160.866 124.828 159.171 123.244C157.513 121.622 156.315 119.651 155.578 117.33C154.878 115.008 154.51 112.539 154.473 109.923V108.21C154.51 107.215 154.878 106.386 155.578 105.723C156.278 105.023 157.126 104.654 158.121 104.617Z" fill="white"/>
<circle cx="172.856" cy="58.5174" r="8.46152" fill="#D9D9D9"/>
<circle cx="172.856" cy="58.5174" r="8.46152" fill="url(#paint0_linear_1748_301)"/>
<circle cx="50.9875" cy="157.332" r="9.12224" fill="#D9D9D9"/>
<circle cx="50.9875" cy="157.332" r="9.12224" fill="url(#paint1_linear_1748_301)"/>
<circle cx="64.5104" cy="60.5199" r="15.2037" fill="#D9D9D9"/>
<circle cx="64.5104" cy="60.5199" r="15.2037" fill="url(#paint2_linear_1748_301)"/>
<circle cx="151.188" cy="191.871" r="13.2" fill="#D9D9D9"/>
<circle cx="151.188" cy="191.871" r="13.2" fill="url(#paint3_linear_1748_301)"/>
<defs>
<filter id="filter0_f_1748_301" x="20.6783" y="20.0688" width="202.126" height="202.125" filterUnits="userSpaceOnUse" color-interpolation-filters="sRGB">
<feFlood flood-opacity="0" result="BackgroundImageFix"/>
<feBlend mode="normal" in="SourceGraphic" in2="BackgroundImageFix" result="shape"/>
<feGaussianBlur stdDeviation="8.56317" result="effect1_foregroundBlur_1748_301"/>
</filter>
<linearGradient id="paint0_linear_1748_301" x1="172.856" y1="50.0559" x2="172.856" y2="66.979" gradientUnits="userSpaceOnUse">
<stop stop-color="#57FB98"/>
<stop offset="0.24" stop-color="#BFFFA8"/>
<stop offset="0.545" stop-color="#ADFFB5"/>
<stop offset="1" stop-color="#54D726"/>
</linearGradient>
<linearGradient id="paint1_linear_1748_301" x1="50.9875" y1="148.209" x2="50.9875" y2="166.454" gradientUnits="userSpaceOnUse">
<stop stop-color="#FFA24D"/>
<stop offset="0.39" stop-color="#FFDBA6"/>
<stop offset="0.67" stop-color="#FFD28F"/>
<stop offset="1" stop-color="#FF9E0D"/>
</linearGradient>
<linearGradient id="paint2_linear_1748_301" x1="64.5104" y1="45.3162" x2="64.5104" y2="75.7236" gradientUnits="userSpaceOnUse">
<stop stop-color="#DBBEF7"/>
<stop offset="0.24" stop-color="#F2E8FF"/>
<stop offset="0.545" stop-color="#D7C5F0"/>
<stop offset="1" stop-color="#BB99FF"/>
</linearGradient>
<linearGradient id="paint3_linear_1748_301" x1="151.188" y1="178.671" x2="151.188" y2="205.071" gradientUnits="userSpaceOnUse">
<stop stop-color="#89D5FF"/>
<stop offset="0.24" stop-color="#E8F7FF"/>
<stop offset="0.545" stop-color="#C5E8F0"/>
<stop offset="1" stop-color="#42C8F2"/>
</linearGradient>
</defs>
</svg>
