<svg width="944" height="415" viewBox="0 0 944 415" fill="none" xmlns="http://www.w3.org/2000/svg">
<rect width="943.182" height="415" fill="white"/>
<path d="M166.32 250.647C166.32 245.767 167.976 241.67 171.288 238.359C174.774 234.872 178.958 233.129 183.839 233.129H223.843L217.045 213.781C214.256 206.634 211.467 199.923 208.678 193.648C206.063 187.198 203.013 181.359 199.527 176.129C196.389 170.9 192.816 168.111 188.806 167.763C184.623 168.111 180.875 170.9 177.563 176.129C174.251 181.359 171.201 187.198 168.412 193.648C165.797 199.923 163.096 206.634 160.307 213.781L135.467 281.762C133.724 285.423 131.458 288.473 128.669 290.913C126.054 293.179 122.045 294.312 116.642 294.312C111.587 294.312 107.403 292.569 104.091 289.083C100.954 285.597 99.5591 281.413 99.9078 276.533C100.082 274.267 100.605 272.175 101.477 270.258L130.238 196.001C138.256 176.478 146.275 160.703 154.293 148.675C162.137 136.822 173.641 130.809 188.806 130.634C203.797 130.809 215.215 136.822 223.059 148.675C231.077 160.354 239.095 176.129 247.114 196.001L275.875 270.258C276.746 272.175 277.269 274.267 277.444 276.533C277.792 281.413 276.311 285.597 272.999 289.083C269.861 292.569 265.765 294.312 260.71 294.312C254.958 294.312 250.687 293.179 247.898 290.913C245.283 288.473 243.104 285.423 241.361 281.762L236.393 268.166H183.839C178.958 268.166 174.862 266.423 171.55 262.936C168.063 259.625 166.32 255.528 166.32 250.647Z" fill="black"/>
<path d="M323.985 202.538C321.021 198.703 319.801 194.432 320.324 189.726C321.021 185.019 323.287 181.097 327.122 177.96L378.631 137.955C382.466 134.469 386.824 132.726 391.705 132.726C396.411 132.9 400.42 134.643 403.732 137.955C407.044 141.093 408.787 145.015 408.961 149.721V277.84C407.916 288.299 402.163 293.964 391.705 294.835C386.824 294.835 382.553 293.267 378.893 290.129C375.407 286.817 373.663 282.721 373.663 277.84V186.327L348.563 205.675C344.728 208.639 340.457 209.772 335.751 209.074C330.87 208.551 326.948 206.372 323.985 202.538Z" fill="black"/>
<path d="M533.158 202.538C530.195 198.703 528.975 194.432 529.498 189.726C530.195 185.019 532.461 181.097 536.296 177.96L587.805 137.955C591.639 134.469 595.997 132.726 600.878 132.726C605.584 132.9 609.594 134.643 612.905 137.955C616.217 141.093 617.961 145.015 618.135 149.721V277.84C617.089 288.299 611.337 293.964 600.878 294.835C595.997 294.835 591.727 293.267 588.066 290.129C584.58 286.817 582.837 282.721 582.837 277.84V186.327L557.736 205.675C553.901 208.639 549.631 209.772 544.924 209.074C540.043 208.551 536.121 206.372 533.158 202.538Z" fill="black"/>
<path d="M739.455 132.726C744.336 132.726 748.52 134.382 752.006 137.694C755.492 140.831 757.322 144.841 757.497 149.721V154.689C757.322 161.836 757.758 168.46 758.804 174.561C760.024 180.487 762.813 185.804 767.171 190.51C771.529 195.217 777.019 197.744 783.643 198.093H857.115V150.244C857.115 145.364 858.858 141.354 862.345 138.217C866.005 134.905 870.276 133.249 875.157 133.249C885.615 134.12 891.367 139.786 892.413 150.244V210.905C892.413 224.849 890.496 238.01 886.661 250.386C883.175 261.368 877.423 270.693 869.404 278.363C861.56 285.858 851.537 289.955 839.336 290.652H745.208C740.501 290.478 736.492 288.822 733.18 285.684C730.043 282.372 728.387 278.363 728.212 273.657C728.212 268.776 729.781 264.592 732.919 261.106C736.231 257.62 740.327 255.79 745.208 255.615H830.446C837.07 255.267 842.56 252.739 846.918 248.033C850.927 243.675 853.629 238.707 855.024 233.129H774.753C762.552 232.432 752.442 228.336 744.423 220.84C736.579 213.171 730.914 203.845 727.428 192.863C724.116 181.882 722.373 170.203 722.199 157.827V149.721C722.373 145.015 724.116 141.093 727.428 137.955C730.74 134.643 734.749 132.9 739.455 132.726Z" fill="black"/>
<circle cx="184.728" cy="86.0233" r="30.4252" fill="black"/>
<circle cx="184.729" cy="222.328" r="132.654" stroke="black" stroke-width="4.86804" stroke-dasharray="24.34 24.34"/>
</svg>
