<svg width="1071" height="452" viewBox="0 0 1071 452" fill="none" xmlns="http://www.w3.org/2000/svg">
<g opacity="0.98">
<path d="M153.162 208.769C39.7123 274.891 154.191 278.526 217.707 274.754C262.84 271.667 308.11 264.465 352.008 253.422C375.124 247.454 460.314 224.408 457.913 197.245C457.159 193.884 453.66 190.112 449.408 187.231C435.347 177.971 418.405 173.787 401.874 169.672C413.535 169.397 425.332 170.015 437.13 172.415C457.776 175.639 482.332 191.141 468.888 215.354C459.079 232.57 441.726 242.721 425.538 251.844C343.297 292.93 237.872 310.215 147.332 295.399C61.25 278.526 81.0043 228.043 153.299 208.769H153.162Z" fill="black"/>
</g>
<path d="M187.455 366.803H134.777L230.805 123.647C240.957 98.1311 259.545 88.3911 288.353 88.3911C317.161 88.3911 335.338 98.1311 345.078 123.647L437.471 366.803H384.381L301.317 146.762C298.916 140.246 294.458 137.434 287.942 137.434C281.425 137.434 276.967 140.246 274.155 146.762L187.455 366.803Z" fill="black"/>
<path d="M485.279 93.2611C535.145 93.2611 548.932 111.095 548.932 158.491V366.803H501.124V161.715C501.124 147.105 495.842 141.069 481.232 141.069H456.54V93.2611H485.279Z" fill="black"/>
<path d="M621.845 93.2611C671.711 93.2611 685.498 111.095 685.498 158.491V366.803H637.69V161.715C637.69 147.105 632.408 141.069 617.798 141.069H593.105V93.2611H621.845Z" fill="black"/>
<path d="M784.406 98.1996L848.607 196.354C852.928 203.007 862.6 203.007 866.989 196.354L931.877 98.131C933.935 95.0444 937.364 93.1925 941.068 93.1925H970.631C979.548 93.1925 984.761 103.275 979.616 110.546L883.726 245.945C882.423 247.797 881.668 249.992 881.668 252.324V366.734H833.448V252.324C833.448 250.061 832.762 247.797 831.391 245.945L735.5 110.546C730.356 103.275 735.5 93.1925 744.485 93.1925H775.214C778.918 93.1925 782.416 95.0444 784.406 98.1996Z" fill="black"/>
</svg>
