<svg width="68" height="34" viewBox="0 0 68 34" fill="none" xmlns="http://www.w3.org/2000/svg">
<path d="M6.68027 2.92783C-0.519734 5.32783 -0.319733 25.9277 4.18026 30.4278C16.6803 38.4279 29.6803 17.9277 26.6803 11.4277C24.2803 6.22773 13.6803 11.9278 8.68027 15.4278C11.0136 10.2612 13.8803 0.527828 6.68027 2.92783Z" stroke="black" stroke-width="2"/>
<path d="M37.9167 14.9461C37.9657 17.4758 37.6385 19.9575 37.1803 21.9278C37.2623 19.9172 37.4919 17.4602 37.9167 14.9461C39.2173 7.24826 42.3483 -0.984309 48.6803 1.42788C52.0295 2.70376 53.1403 6.01447 52.8729 9.94833C52.3018 18.3474 45.4475 29.5872 40.6803 29.9277C35.8512 30.2727 44.3476 14.9127 52.8729 9.94833C53.1403 6.01447 52.0295 2.70376 48.6803 1.42788C42.3483 -0.984309 39.2173 7.24826 37.9167 14.9461Z" fill="#FFDBA6"/>
<path d="M31.1803 28.4278C23.5136 20.4278 11.5803 4.02776 25.1803 2.42776C38.7803 0.827761 38.8469 14.7611 37.1803 21.9278C37.5136 13.7611 40.2803 -1.77212 48.6803 1.42788C59.1803 5.42788 47.6803 29.4277 40.6803 29.9277C33.6803 30.4277 54.6803 -2.07227 63.1803 11.9277" stroke="black" stroke-width="2"/>
<circle cx="64.6803" cy="13.4277" r="2.5" fill="black"/>
<path d="M48.1803 13.9277C48.5136 14.9277 49.6803 16.6277 51.6803 15.4277" stroke="black"/>
<path d="M47.6803 14.4277C48.0136 15.4277 49.1803 17.6277 51.1803 16.4277" stroke="black"/>
<path d="M44.6803 17.4277C44.6803 18.9277 45.6803 21.7277 49.6803 20.9277" stroke="black"/>
<path d="M44.1803 17.9277C45.1803 20.4277 45.0803 21.9277 48.6803 21.9277" stroke="black"/>
</svg>
