<svg width="1058" height="658" viewBox="0 0 1058 658" fill="none" xmlns="http://www.w3.org/2000/svg">
<g opacity="0.98">
<path d="M294.014 316.561C208.791 368.915 147.617 432.191 296.834 438.857C379.545 441.062 462.973 427.371 543.786 409.117C624.497 390.195 705.412 366.095 779.406 328.714C831.196 301.69 904.933 251.849 806.326 224.826C786.174 219.134 765.15 216.262 744.281 213.698C781.303 212.314 846.528 210.724 868.526 246.362C892.164 297.793 800.275 347.481 763.663 367.274C657.724 419.731 541.632 449.933 424.412 462.804C359.905 468.137 292.424 472.444 230.071 450.908C197.51 439.421 174.025 410.501 199.458 377.837C223.508 347.891 259.709 331.175 294.014 316.561Z" fill="black"/>
</g>
<path d="M500.56 277.231L396.211 542.079H315.603L462.512 170.061C478.049 130.988 506.559 116.118 550.555 116.118C594.551 116.118 622.446 130.988 637.368 170.061L778.74 542.079H697.516L570.4 205.443C566.657 195.546 559.837 191.188 549.94 191.188C540.044 191.188 533.224 195.546 528.865 205.443L500.56 277.282" fill="black"/>
</svg>
