<svg width="794" height="794" viewBox="0 0 794 794" fill="none" xmlns="http://www.w3.org/2000/svg">
<rect width="794" height="794" rx="60.8429" fill="black"/>
<path fill-rule="evenodd" clip-rule="evenodd" d="M525.757 381.391L565.587 467.351C587.587 468.122 609.554 463.721 630.097 453.52C700.323 418.648 729.892 327.929 703.01 241.869C699.676 299.033 671.299 349.872 623.272 373.72C592.409 389.045 558.229 390.843 525.757 381.391Z" fill="white"/>
<path fill-rule="evenodd" clip-rule="evenodd" d="M405.438 650.945C463.699 611.55 501.954 545.177 501.954 469.938C501.954 349.057 403.208 251.063 281.398 251.063C249.503 251.063 219.188 257.782 191.814 269.871C234.047 229.059 292.344 203.824 356.728 203.824C485.658 203.824 590.176 305.018 590.176 429.848C590.176 538.504 510.987 629.253 405.438 650.945Z" fill="white"/>
<circle cx="612.992" cy="260.103" r="53.2375" fill="white"/>
<circle cx="270.751" cy="559.755" r="60.8429" fill="#956CD6"/>
<circle cx="421.337" cy="491.307" r="38.0268" fill="#ECB056"/>
<path d="M234.245 362.015C234.245 378.817 220.625 392.437 203.824 392.437C187.022 392.437 173.402 378.817 173.402 362.015C173.402 345.214 187.022 331.594 203.824 331.594C220.625 331.594 234.245 345.214 234.245 362.015Z" fill="#88D6A7"/>
<circle cx="331.594" cy="389.395" r="45.6322" fill="#5091DF"/>
</svg>
